<?xml version="1.0" encoding="UTF-8" standalone="no"?>
<svg
   xmlns:dc="http://purl.org/dc/elements/1.1/"
   xmlns:cc="http://creativecommons.org/ns#"
   xmlns:rdf="http://www.w3.org/1999/02/22-rdf-syntax-ns#"
   xmlns:svg="http://www.w3.org/2000/svg"
   xmlns="http://www.w3.org/2000/svg"
   viewBox="0 0 393.06668 476.22668"
   height="476.22668"
   width="393.06668"
   xml:space="preserve"
   id="svg2"
   version="1.1"><metadata
     id="metadata8"><rdf:RDF><cc:Work
         rdf:about=""><dc:format>image/svg+xml</dc:format><dc:type
           rdf:resource="http://purl.org/dc/dcmitype/StillImage" /></cc:Work></rdf:RDF></metadata><defs
     id="defs6" /><g
     transform="matrix(1.3333333,0,0,-1.3333333,0,476.22667)"
     id="g10"><g
       transform="scale(0.1)"
       id="g12"><path
         id="path14"
         style="fill:#231f20;fill-opacity:1;fill-rule:nonzero;stroke:none"
         d="m 2755.75,2841.49 c 83.89,28.62 125.19,54.33 171.26,90.95 -0.02,-1.02 -20.42,-167.04 -22.17,-309.73 -11.3,-924.13 -26.26,-920.98 -44.18,-1704.12 -2.12,-92.551 -2.16,-299.629 -2.05,-299.93 -22.55,-15.14 -26.09,-22.441 -61.52,-53.801 -1.09,-1.48 -41.42,2272.121 -41.34,2276.631" /><path
         id="path16"
         style="fill:#231f20;fill-opacity:1;fill-rule:nonzero;stroke:none"
         d="m 2814.8,121.551 c 46.28,0 83.79,37.519 83.79,83.789 0,46.281 -37.51,83.789 -83.79,83.789 -46.27,0 -83.79,-37.508 -83.79,-83.789 0,-46.27 37.52,-83.789 83.79,-83.789" /><path
         id="path18"
         style="fill:#231f20;fill-opacity:1;fill-rule:nonzero;stroke:none"
         d="m 432.125,1217.48 c 0,0 -5.586,46.28 31.695,109.84 89.379,152.39 334.84,364.96 621.85,100.39 -58.47,-38.38 -118.701,-130.51 -118.701,-130.51 0,0 -185.239,289.57 -479.727,15.55 -27.816,-25.88 -33.07,-55.12 -55.117,-95.27" /><path
         id="path20"
         style="fill:#231f20;fill-opacity:1;fill-rule:nonzero;stroke:none"
         d="m 2467.56,3539.52 c 0,0 -310.39,-534.8 -746.46,-550.39 -396.96,-14.19 -524.35,163.69 -961.416,170.08 -323.149,4.72 -473.317,-217.09 -519.684,-372.76 -52.914,-177.63 -13.828,-371.5 167.719,-413.86 141.73,-33.07 198.894,172.45 198.894,172.45 0,0 -77.242,-264.57 -2.832,-987.41 12.11,-117.65 56.692,-258.66 31.887,-467.71 C 586.266,673.5 486.852,349.371 351.496,161.57 296.793,85.6719 167.074,102.109 153.781,172.199 104.172,433.699 561.262,636.371 763.227,406.059 860.273,295.398 890.738,98.9297 791.574,87.1602 582.52,62.3594 332.094,962.301 334.488,1192.67 c 2.836,272.84 -3.527,1222.07 779.532,1257.88 464.88,21.26 570.47,-351.76 575.43,-432.29 11.34,-184.25 -62.36,-591.73 -270.71,-615.11 -142.64,-16.01 -138.19,150.23 10.63,153.07 106.28,2.02 336.84,-140.28 389.76,-473.39 60.24,-379.131 -129.68,-882.279 -240.23,-846.85 -62.22,19.942 28.49,611.379 309.97,570.192 171.27,-25.07 141.52,-354.34 81.21,-513.5 -51.02,-134.641 -122.6,-209.0509 -122.6,-209.0509 0,0 172.78,-20.1797 336.61,106.3009 268.51,207.277 243.31,418.898 243.31,418.898 0,0 68.51,-10.238 125.2,81.891 56.69,92.121 47.83,225.187 47.83,225.187 l -67.47,-65.316 c 0,0 40.5,-112.363 -44.14,-149.242 -34.33,-14.969 -73.44,4.719 -74.41,5.898 -9.34,87.403 -68.5,171.262 -68.5,171.262 l -99.32,-72.691 c 0,0 -32.97,-47.668 37.36,-149.457 0,-1.293 10.64,-82.071 11.17,-126.27 1.18,-99.223 -26.09,-195.344 -96.85,-269.301 -99.86,-104.359 -228.19,-102.039 -228.19,-102.039 0,0 399.68,680.309 -53.86,704.406 -407.66,21.653 -586.06,-744.097 -450.71,-779.5269 25.48,-6.6719 91.42,-38.2695 243.78,162.9879 139.98,184.903 279.92,566.93 279.92,772.441 0,361.58 -318.89,581.1 -529.37,588.19 -274.83,9.25 -334.49,-255.12 -113.38,-269.29 221.1,-14.17 497.48,364.96 504.56,662.6 7.09,297.64 -251.57,578.97 -701.57,563.38 C 465.414,2540.23 143.148,1710 144.566,1236.37 145.883,796.781 533.293,7.14844 811.652,43.4609 1083.31,78.8906 1062.05,612.281 450.234,532.441 96.0352,486.211 -55.2773,221.102 32.125,59.5195 76.668,-22.8203 254.238,-4.26953 336.852,76.5313 487.559,223.93 903.094,994.332 785.195,1578.89 c -170.078,843.31 5.672,1233.07 5.672,1233.07 0,0 -73.699,-56.69 -146.929,-65.19 -18.899,-82.21 -51.969,-206.93 -174.805,-206.93 -69.504,0 -196.442,98.26 -186.613,196.54 16.535,165.35 227.828,267.29 462.992,240 337.798,-39.22 807.878,-247.09 1062.988,-150.24 679.1,257.8 659.06,713.38 659.06,713.38" /></g></g></svg>